<svg xmlns="http://www.w3.org/2000/svg" viewBox="0 0 256 256">
  <rect width="256" height="256" rx="44" fill="#081723"/>
  <path d="M78 48h56c38 0 62 18 62 49 0 19-10 32-28 40 23 7 36 23 36 46 0 38-29 61-77 61H78V48zm47 78c17 0 28-8 28-21 0-13-10-20-28-20h-13v41h13zm7 82c22 0 35-10 35-26 0-16-13-25-35-25h-20v51h20z" fill="#ffffff"/>
  <path d="M78 48h56c38 0 62 18 62 49 0 19-10 32-28 40 23 7 36 23 36 46 0 38-29 61-77 61H78V48zm47 78c17 0 28-8 28-21 0-13-10-20-28-20h-13v41h13zm7 82c22 0 35-10 35-26 0-16-13-25-35-25h-20v51h20z" fill="none" stroke="#c8a96e" stroke-width="6" opacity="0.6"/>
</svg>
